<svg xmlns="http://www.w3.org/2000/svg" viewBox="0 0 38.88 50.5"><defs><style>.cls-1{fill:#fff;}</style></defs><title>pinterest</title><path id="icon" d="M19.88 0c8.78-.12 15 4.2 17.6 10.24a19.44 19.44 0 0 1 1.2 4c.13.67 0 1.35.15 2.1a6.42 6.42 0 0 1 0 1.86c-.05.73-.1 1.45-.17 2.18a42.44 42.44 0 0 1-1 4.53 21.1 21.1 0 0 1-3.9 6.94 13.9 13.9 0 0 1-7.6 4.37 11.8 11.8 0 0 1-5.48-.13 7.74 7.74 0 0 1-3.7-2.14 11.2 11.2 0 0 0-.74-1q-1 4-2 8a25.62 25.62 0 0 1-3 6.3c-.58.92-1.2 1.8-1.84 2.65-.16.2-.46.88-.9.58s-.3-1.82-.4-2.33a26 26 0 0 1 .13-7.93q2-8.4 3.92-16.8c-.13-.35-.27-.7-.4-1.07a16.25 16.25 0 0 1-.45-2.1 7.4 7.4 0 0 1 0-2.16c.1-.56.08-1 .2-1.54.57-2.3 1.72-4.16 3.77-5 3.16-1.25 6 1.4 5.4 4.77a23.13 23.13 0 0 1-.46 2.52 61.38 61.38 0 0 0-2.18 8 3.73 3.73 0 0 0 .54 2.32 4.84 4.84 0 0 0 5.53 2.22 6.7 6.7 0 0 0 1.76-.7c2.8-1.67 4.35-4.83 5.27-8.4.23-.86.3-1.73.48-2.7a17 17 0 0 0-.2-6.86 10.18 10.18 0 0 0-3.9-5.6 12.28 12.28 0 0 0-3.9-1.73 16.88 16.88 0 0 0-8.5.3c-5 1.6-8.12 5.26-9.26 10.74a10.75 10.75 0 0 0 .75 6.72l.65 1a3.07 3.07 0 0 1 .8 1.24 2.37 2.37 0 0 1-.2 1.1c-.25.95-.28 2.6-1.28 2.8-.63.13-1.83-.68-2.2-.94a10.62 10.62 0 0 1-4-6.53C.2 21 .23 20.24.1 19.36a10.54 10.54 0 0 1 .05-3.17 23.8 23.8 0 0 1 .57-2.72 18.45 18.45 0 0 1 10-11.4 27 27 0 0 1 5.7-1.75L19 0z" class="cls-1"/></svg>