<?xml version="1.0" standalone="no"?>
<!DOCTYPE svg PUBLIC "-//W3C//DTD SVG 20010904//EN"
 "http://www.w3.org/TR/2001/REC-SVG-20010904/DTD/svg10.dtd">
<svg version="1.0" xmlns="http://www.w3.org/2000/svg"
 width="256.000000pt" height="256.000000pt" viewBox="0 0 256.000000 256.000000"
 preserveAspectRatio="xMidYMid meet">
<metadata>
Created by potrace 1.11, written by Peter Selinger 2001-2013
</metadata>
<g transform="translate(0.000000,256.000000) scale(0.100000,-0.100000)"
fill="#000000" stroke="none">
<path d="M651 1965 c-1 -6 -12 -12 -26 -13 -14 -1 -38 -8 -54 -17 -16 -8 -32
-11 -36 -7 -5 4 -5 1 -1 -5 5 -8 1 -13 -10 -13 -10 0 -15 -3 -11 -6 3 -3 -5
-18 -18 -32 -19 -21 -27 -24 -37 -14 -7 7 -16 12 -22 12 -5 0 -1 -6 9 -14 16
-12 17 -16 6 -30 -7 -9 -17 -13 -22 -10 -5 3 -8 0 -7 -7 2 -6 -3 -14 -11 -17
-9 -3 -11 0 -6 9 5 8 4 11 -1 6 -5 -5 -9 -16 -9 -25 0 -9 -8 -17 -17 -17 -9 0
-20 -4 -25 -9 -5 -5 -2 -6 6 -1 9 5 12 3 9 -6 -3 -8 -11 -13 -17 -11 -7 1 -10
-2 -7 -7 3 -5 -1 -14 -9 -21 -13 -11 -14 -10 -9 4 3 9 1 16 -5 16 -6 0 -10 -3
-10 -7 4 -26 -3 -43 -18 -43 -9 0 -14 -3 -10 -6 12 -12 -30 -45 -49 -38 -15 4
-16 4 -5 -4 12 -9 12 -13 -2 -27 -9 -9 -22 -13 -28 -9 -8 5 -9 3 -4 -5 8 -13
-28 -54 -39 -44 -3 4 -6 0 -6 -9 0 -8 -21 -35 -48 -59 -31 -29 -46 -50 -44
-63 2 -10 -1 -21 -6 -25 -17 -10 18 -94 49 -120 16 -13 29 -30 29 -37 0 -7 5
-16 12 -20 7 -4 8 -3 4 4 -13 22 10 12 32 -13 13 -15 19 -32 15 -42 -5 -15 -4
-15 9 1 15 19 16 19 29 -1 7 -12 18 -19 24 -17 6 3 30 1 53 -4 24 -6 39 -6 36
-1 -4 8 20 13 29 7 2 -2 11 5 21 15 10 9 22 14 28 11 7 -4 8 -2 4 5 -8 13 69
92 87 88 6 -1 12 4 13 11 1 6 2 16 3 21 0 6 14 18 30 27 17 10 27 22 24 28 -4
5 0 7 10 3 9 -3 21 1 29 11 12 15 11 16 -4 3 -12 -9 -18 -10 -18 -2 0 6 4 11
10 11 5 0 19 10 30 23 18 19 20 19 14 3 -6 -15 -4 -18 9 -13 9 3 19 1 23 -5 4
-6 3 -8 -4 -4 -6 3 -13 2 -17 -3 -3 -6 5 -8 20 -5 23 4 30 -3 26 -28 0 -4 5
-5 12 -2 7 2 24 -8 37 -22 14 -15 19 -24 11 -19 -10 5 -12 4 -7 -4 4 -6 11 -9
16 -6 10 6 76 -55 72 -67 -1 -5 1 -7 6 -4 13 8 53 -24 46 -36 -4 -6 -2 -8 4
-4 6 3 15 -2 21 -11 6 -10 11 -15 11 -10 0 4 20 -12 44 -35 25 -24 58 -54 75
-67 17 -13 28 -28 25 -33 -3 -4 1 -5 9 -3 14 6 80 -59 70 -69 -4 -3 4 -6 16
-6 12 0 20 -4 17 -9 -3 -5 4 -11 15 -14 14 -4 18 -10 13 -19 -4 -7 -4 -10 1
-6 11 11 36 -12 28 -25 -4 -6 -1 -7 6 -3 14 9 53 -22 45 -36 -3 -4 -2 -8 3 -7
13 3 43 -12 43 -23 0 -5 -4 -6 -10 -3 -6 4 -7 -1 -3 -11 4 -11 8 -13 11 -6 2
7 8 12 14 12 6 0 8 -7 5 -14 -4 -11 -1 -13 10 -9 12 5 15 2 10 -10 -4 -11 -2
-14 7 -11 7 3 20 -1 28 -9 8 -8 33 -17 57 -21 23 -3 46 -8 52 -11 5 -4 9 -2 9
2 0 9 59 37 73 34 5 -1 6 2 3 7 -7 12 88 104 98 95 4 -5 6 -1 4 7 -2 8 3 14
10 12 8 -1 11 2 7 8 -3 5 -1 10 5 10 6 0 9 4 6 9 -9 15 5 42 18 34 8 -5 8 -3
0 8 -5 8 -11 30 -13 49 -2 19 -7 37 -12 38 -5 2 -9 9 -9 15 0 7 -9 18 -20 25
-11 7 -20 19 -20 27 0 9 -6 12 -15 9 -9 -4 -18 2 -24 17 -5 13 -10 21 -10 17
-1 -7 -28 15 -92 74 -16 16 -34 28 -39 28 -5 0 -7 7 -4 15 4 11 2 13 -9 9 -10
-3 -22 4 -32 20 -10 14 -21 24 -25 21 -10 -6 -52 44 -45 55 3 5 -2 13 -11 18
-15 8 -15 10 0 15 10 4 14 3 11 -2 -3 -5 -1 -12 5 -16 6 -4 7 -11 4 -17 -5 -7
-2 -8 7 -2 21 13 59 16 59 4 0 -5 6 -10 13 -10 6 0 23 -12 36 -25 20 -22 22
-27 10 -43 -13 -16 -13 -16 5 -2 15 12 20 12 23 2 3 -6 8 -10 13 -7 4 2 16 -5
26 -16 16 -17 16 -23 5 -42 -14 -22 -14 -22 7 -3 21 18 22 17 76 -37 30 -30
58 -52 62 -48 4 3 4 0 0 -6 -4 -7 -2 -13 3 -13 17 0 51 -33 52 -50 0 -10 2
-11 6 -3 3 10 7 10 18 0 7 -7 11 -15 8 -19 -2 -5 3 -8 11 -8 8 0 18 -5 22 -12
5 -7 3 -8 -6 -3 -8 5 -11 4 -6 -3 4 -6 12 -9 19 -6 7 2 29 -13 49 -34 29 -31
35 -42 25 -53 -10 -11 -9 -11 4 -1 14 10 22 8 48 -15 17 -15 31 -33 31 -41 0
-7 4 -11 9 -7 6 3 30 -14 55 -39 25 -24 48 -41 52 -37 4 3 4 -2 1 -12 -4 -11
-3 -16 3 -12 12 7 53 -19 44 -28 -3 -3 4 -3 17 0 17 5 20 3 14 -8 -8 -12 -6
-12 8 0 14 11 17 11 17 0 0 -11 2 -11 10 1 8 13 10 13 10 0 0 -11 3 -11 12 -2
7 7 22 12 35 12 12 0 27 8 32 18 6 9 11 13 11 9 0 -9 39 32 64 66 9 13 13 15
10 6 -3 -10 -2 -19 3 -22 4 -3 9 6 9 19 2 29 22 56 35 48 5 -3 9 -2 8 3 -1 4
3 21 10 38 7 16 11 48 9 70 -3 35 -12 48 -67 100 -36 33 -82 77 -103 97 -21
20 -38 34 -38 31 0 -2 -18 14 -40 37 -22 23 -40 39 -40 35 0 -9 -26 18 -28 29
0 5 -14 15 -31 24 -17 8 -31 21 -31 30 0 8 -3 12 -7 9 -3 -4 -19 7 -35 23 -15
17 -32 30 -36 30 -4 0 -20 15 -37 32 -16 17 -24 28 -16 23 10 -5 12 -4 7 4 -4
6 -12 9 -17 6 -11 -7 -39 18 -39 35 0 6 -4 8 -10 5 -5 -3 -15 3 -22 15 -7 11
-18 20 -24 20 -16 0 -45 35 -37 45 5 4 2 5 -5 1 -9 -5 -15 -1 -19 13 -3 11 -9
18 -14 16 -4 -3 -23 8 -41 26 -18 17 -27 27 -19 23 9 -5 12 -3 7 5 -4 6 -11 9
-16 6 -4 -3 -24 11 -44 30 -20 19 -40 35 -44 35 -15 0 -77 73 -77 90 0 10 -3
22 -7 26 -4 3 -6 -3 -3 -15 5 -25 1 -26 -25 -4 -21 19 -28 39 -8 27 7 -4 8 -3
4 4 -4 6 -13 9 -21 5 -18 -6 -19 8 -2 27 6 8 3 7 -8 -2 -15 -12 -23 -13 -32
-5 -28 27 -40 32 -75 31 -20 -1 -54 -8 -75 -15 -21 -7 -41 -13 -45 -14 -3 0
-10 -4 -15 -9 -5 -5 -2 -6 7 -1 8 4 -17 -25 -57 -64 -45 -45 -77 -70 -84 -65
-8 4 -9 3 -5 -5 9 -13 -92 -123 -106 -115 -4 3 -6 10 -3 15 4 5 -1 9 -11 9 -9
0 -24 8 -33 18 -9 9 -33 30 -53 45 -21 15 -38 35 -38 43 0 8 -4 13 -9 10 -7
-5 -72 47 -138 111 -13 12 -23 19 -23 16 0 -4 -5 -2 -12 5 -7 7 -20 12 -29 12
-10 0 -20 6 -22 13 -3 6 -6 7 -6 2z m789 -575 c17 0 4 -13 -14 -16 -8 -1 -16
10 -19 24 -5 24 -4 25 8 9 7 -9 18 -17 25 -17z"/>
<path d="M1190 1845 c-7 -9 -8 -15 -2 -15 5 0 12 7 16 15 3 8 4 15 2 15 -2 0
-9 -7 -16 -15z"/>
<path d="M1646 1801 c-3 -5 1 -11 9 -14 9 -4 12 -1 8 9 -6 16 -10 17 -17 5z"/>
<path d="M907 1779 c7 -7 15 -10 18 -7 3 3 -2 9 -12 12 -14 6 -15 5 -6 -5z"/>
<path d="M1720 1740 c8 -5 20 -10 25 -10 6 0 3 5 -5 10 -8 5 -19 10 -25 10 -5
0 -3 -5 5 -10z"/>
<path d="M1065 1720 c-3 -6 1 -7 9 -4 18 7 21 14 7 14 -6 0 -13 -4 -16 -10z"/>
<path d="M1035 1710 c-3 -5 -1 -10 6 -10 8 0 7 -5 -2 -17 -13 -16 -12 -17 3
-5 9 8 14 20 11 28 -6 17 -10 17 -18 4z"/>
<path d="M1873 1610 c-1 -11 2 -22 6 -24 4 -3 7 4 6 14 -2 27 -10 33 -12 10z"/>
<path d="M109 1503 c-13 -16 -12 -17 4 -4 9 7 17 15 17 17 0 8 -8 3 -21 -13z"/>
<path d="M1422 1330 c7 -10 14 -18 15 -16 6 6 -9 36 -18 36 -5 0 -4 -9 3 -20z"/>
<path d="M1447 1344 c7 -3 9 -13 6 -22 -4 -14 -3 -14 5 -2 12 16 7 30 -11 29
-9 0 -9 -2 0 -5z"/>
<path d="M1480 1334 c0 -5 6 -18 13 -27 9 -12 16 -14 27 -6 13 9 13 10 0 6 -8
-2 -20 5 -27 17 -7 12 -12 16 -13 10z"/>
<path d="M1470 1305 c0 -5 5 -17 10 -25 5 -8 10 -10 10 -5 0 6 -5 17 -10 25
-5 8 -10 11 -10 5z"/>
<path d="M1530 1260 c-9 -6 -10 -10 -3 -10 6 0 15 5 18 10 8 12 4 12 -15 0z"/>
<path d="M1559 1252 c-13 -15 -12 -16 4 -3 15 12 17 11 17 -7 0 -15 -5 -19
-22 -16 -21 4 -21 4 -3 -5 25 -11 35 -5 35 19 0 27 -15 33 -31 12z"/>
<path d="M1623 1205 c0 -8 4 -15 9 -15 4 0 8 4 8 9 0 6 -4 12 -8 15 -5 3 -9
-1 -9 -9z"/>
<path d="M1650 1185 c0 -2 10 -10 23 -16 20 -11 21 -11 8 4 -13 16 -31 23 -31
12z"/>
<path d="M876 1167 c3 -10 9 -15 12 -12 3 3 0 11 -7 18 -10 9 -11 8 -5 -6z"/>
<path d="M1635 1160 c27 -12 43 -12 25 0 -8 5 -22 9 -30 9 -10 0 -8 -3 5 -9z"/>
<path d="M930 1141 c0 -6 4 -13 10 -16 6 -3 7 1 4 9 -7 18 -14 21 -14 7z"/>
<path d="M1666 1123 c-6 -14 -5 -15 5 -6 7 7 10 15 7 18 -3 3 -9 -2 -12 -12z"/>
<path d="M1727 1079 c7 -7 15 -10 18 -7 3 3 -2 9 -12 12 -14 6 -15 5 -6 -5z"/>
<path d="M1775 1049 c-4 -6 -5 -12 -2 -15 2 -3 7 2 10 11 7 17 1 20 -8 4z"/>
<path d="M1870 982 c0 -4 9 -8 19 -8 11 0 17 4 15 8 -7 10 -34 10 -34 0z"/>
<path d="M1274 856 c1 -8 5 -18 8 -22 4 -3 5 1 4 10 -1 8 -5 18 -8 22 -4 3 -5
-1 -4 -10z"/>
<path d="M1680 826 c0 -2 7 -7 16 -10 8 -3 12 -2 9 4 -6 10 -25 14 -25 6z"/>
<path d="M1650 779 c0 -5 5 -7 10 -4 6 3 10 8 10 11 0 2 -4 4 -10 4 -5 0 -10
-5 -10 -11z"/>
<path d="M1490 706 c0 -2 7 -7 16 -10 8 -3 12 -2 9 4 -6 10 -25 14 -25 6z"/>
</g>
</svg>
